<svg width="700" height="700" viewBox="0 0 700 700" fill="none" xmlns="http://www.w3.org/2000/svg">
<path d="M155.967 490.077L155.511 484.459C154.94 477.421 149.061 472 142 472H192C185.007 472 179.252 477.502 178.937 484.487L178.685 490.077C178.548 493.111 176.049 495.5 173.012 495.5H161.848C158.774 495.5 156.215 493.14 155.967 490.077Z" fill="white"/>
<path d="M531.033 490.462L531.51 484.461C532.069 477.425 537.942 472 545 472H495C501.991 472 507.743 477.504 508.051 484.488L508.315 490.462C508.452 493.559 511.003 496 514.103 496H525.037C528.174 496 530.785 493.589 531.033 490.462Z" fill="white"/>
<path d="M94.0763 495.052L93.4231 485.31C93.1672 481.493 90.6293 478.21 87 477H133.5C129.331 478.191 126.412 481.943 126.283 486.277L126.014 495.329C125.87 500.159 121.913 504 117.081 504H110.216H103.644C98.5972 504 94.414 500.088 94.0763 495.052Z" fill="white"/>
<path d="M595.001 495.032L595.65 485.25C595.901 481.468 598.408 478.21 602 477H556C560.126 478.192 563.01 481.912 563.137 486.205L563.405 495.312C563.548 500.151 567.511 504 572.352 504H579.034H585.419C590.476 504 594.666 500.078 595.001 495.032Z" fill="white"/>
<path d="M274.5 377L276.741 374.439C282.182 368.221 288.911 363.262 296.461 359.906V359.906C303.739 356.671 311.615 355 319.58 355H371.664C379.147 355 386.556 356.482 393.464 359.36V359.36C402.342 363.059 410.132 368.957 416.102 376.498L416.5 377" stroke="white" stroke-width="30" stroke-linecap="round"/>
<path d="M133 378L135.241 375.439C140.682 369.221 147.411 364.262 154.961 360.906V360.906C162.239 357.671 170.115 356 178.08 356H231.795C238.201 356 244.545 357.269 250.459 359.733L252.676 360.657C260.997 364.124 267.958 370.214 272.5 378V378" stroke="white" stroke-width="30" stroke-linecap="round"/>
<path d="M556 378L553.746 375.415C548.339 369.213 541.645 364.264 534.13 360.912V360.912C526.87 357.674 519.01 356 511.061 356H457.582C451.184 356 444.849 357.271 438.946 359.739L436.78 360.645C428.472 364.12 421.526 370.214 417 378V378" stroke="white" stroke-width="30" stroke-linecap="round"/>
<path d="M160 357.5L159.945 356.948C157.624 333.743 139.857 315.07 116.797 311.598V311.598C111.957 310.87 107.038 310.842 102.191 311.515L96.0272 312.371C93.0193 312.789 90.0704 313.556 87.2401 314.657L84.3979 315.762C77.3743 318.493 71.5865 323.69 68.1175 330.381V330.381C67.0426 332.454 66.2054 334.641 65.6219 336.902L65.4814 337.447C63.553 344.92 64.2593 352.829 67.4814 359.842V359.842C69.772 364.827 73.5351 368.991 78.2641 371.773L84.8466 375.645C86.8004 376.794 88 378.892 88 381.158V454.5C88 460.023 92.4772 464.5 98 464.5H122.5C128.023 464.5 132.5 460.023 132.5 454.5V374.5L131.621 367.47C129.7 352.1 119.465 339.04 105 333.5V333.5" stroke="white" stroke-width="30" stroke-linecap="round"/>
<path d="M531 358L531.122 356.761C533.367 333.957 550.788 315.577 573.439 312.114V312.114C578.269 311.375 583.181 311.347 588.019 312.029L594.419 312.932C597.094 313.309 599.716 314.001 602.229 314.994V314.994C611.117 318.504 618.137 325.563 621.6 334.47L622 335.5M622 335.5L622.786 337.701C625.489 345.27 625.149 353.593 621.836 360.915V360.915C619.749 365.528 616.301 369.392 611.955 371.988L604.981 376.155C603.065 377.299 601.892 379.367 601.892 381.598V455C601.892 460.523 597.415 465 591.892 465H568.077C562.554 465 558.077 460.523 558.077 455V375V356.68C558.077 349.112 560.61 341.761 565.272 335.799V335.799C571.15 328.284 579.923 323.593 589.437 322.88L591.755 322.706C593.582 322.569 595.418 322.572 597.245 322.717L599.244 322.875C608.3 323.589 616.601 328.195 622 335.5V335.5Z" stroke="white" stroke-width="30" stroke-linecap="round"/>
<circle cx="350" cy="350" r="335" stroke="white" stroke-width="30"/>
<path d="M130.5 312.5L133.759 297.404C137.639 279.433 150.537 264.747 167.856 258.579V258.579C173.576 256.541 179.604 255.5 185.676 255.5H254" stroke="white" stroke-width="30" stroke-linecap="round"/>
<path d="M556 313L552.701 297.548C548.911 279.795 536.222 265.259 519.143 259.107V259.107C513.436 257.051 507.415 256 501.348 256H293.5" stroke="white" stroke-width="30" stroke-linecap="round"/>
<line x1="121" y1="457" x2="569" y2="457" stroke="white" stroke-width="30"/>
<line x1="131" y1="416" x2="559.001" y2="416" stroke="white" stroke-width="30"/>
<line x1="131" y1="406" x2="559.001" y2="406" stroke="white" stroke-width="30"/>
<path d="M273.25 397.001V333.999" stroke="white" stroke-width="30" stroke-linecap="round"/>
<path d="M417 400.002V347.5" stroke="white" stroke-width="30" stroke-linecap="round"/>
<path d="M417 313.5V295" stroke="white" stroke-width="30" stroke-linecap="round"/>
<circle cx="273" cy="300" r="15" fill="white"/>
<circle cx="213" cy="311" r="15" fill="white"/>
<circle cx="346" cy="311" r="15" fill="white"/>
<circle cx="480" cy="311" r="15" fill="white"/>
<path d="M154.5 349.5L124 321.5L138.5 360.5L154.5 349.5Z" fill="white"/>
</svg>
